<?xml version="1.0" encoding="UTF-8"?>
<svg version="1.1" viewBox="0 0 208.96 208.95" xmlns="http://www.w3.org/2000/svg">
<defs>
<clipPath id="b">
<path d="m789.82 386c-70.84 23.52-151.06 50.148-169.82 134.94-12.566 56.793 10.684 101.62 43.633 140.31-95.899-45.16-162.32-142.57-162.32-255.58 0.032-155.92 126.38-282.27 282.27-282.23 26.453-0.019 52.078 3.707 76.375 10.469 46.66 44.149 86.992 87.379 74.121 145.44-14.031 63.418-77.312 84.437-144.26 106.65m-6.211 301.97c-14.558 0-28.886-1.114-42.851-3.242-50.332-47.555-96.895-92.872-83.059-155.41 14.008-63.461 77.285-84.41 144.28-106.62 70.801-23.578 151.06-50.16 169.77-134.98 9.484-42.641-1.543-78.469-21.785-110.1 70.239 51.399 115.89 134.39 115.9 228.02 0.02 155.98-126.35 282.37-282.25 282.33z"/>
</clipPath>
<radialGradient id="a" cx="0" cy="0" r="1" gradientTransform="matrix(202.36 -196.79 -196.79 -202.36 783.6 405.69)" gradientUnits="userSpaceOnUse">
<stop stop-color="#fff" offset="0"/>
<stop stop-color="#fbc956" offset="1"/>
</radialGradient>
</defs>
<g transform="matrix(1.3333 0 0 -1.3333 0 208.95)">
<g transform="scale(.1)">
<path d="m1562.8 783.59c-0.01-430.3-348.91-779.23-779.25-779.21-430.38-0.01171-779.23 348.89-779.24 779.18 0.01953 430.35 348.87 779.29 779.28 779.28 430.34-0.02 779.15-348.91 779.22-779.24" fill="#fff"/>
<path d="m1562.8 783.59 4.32-0.012c0.01-432.68-350.81-783.57-783.57-783.57-432.77 0.03125-783.58 350.88-783.59 783.59-0.011719 432.75 350.83 783.58 783.56 783.56 432.81 0.01 783.59-350.84 783.6-783.58l-4.32 0.012-4.34 8e-3c-0.05 213.96-86.8 407.7-226.99 547.96-140.25 140.2-333.9 226.91-547.9 226.94-214.03-0.04-407.73-86.75-547.95-226.99-140.23-140.25-226.95-333.94-226.95-547.91 0.01953-213.97 86.73-407.66 226.96-547.88 140.23-140.25 333.93-227.02 547.94-227 213.97 0 407.66 86.719 547.86 226.97 140.28 140.2 227 333.95 227.03 547.91l4.34-8e-3" fill="#231f20"/>
<path d="m1515.8 783.59c-0.01-404.4-327.85-732.2-732.18-732.17-404.38 0-732.17 327.8-732.2 732.19 0 404.37 327.83 732.16 732.19 732.14 404.36 0.05 732.18-327.78 732.18-732.16" fill="#3b52ac"/>
<path d="m1515.8 783.59c-0.01-404.4-327.85-732.2-732.18-732.17-404.38 0-732.17 327.8-732.2 732.19 0 404.37 327.83 732.16 732.19 732.14 404.36 0.05 732.18-327.78 732.18-732.16z" fill="none" stroke="#231f20" stroke-width="20"/>
<g clip-path="url(#b)">
<path d="m789.82 386c-70.84 23.52-151.06 50.148-169.82 134.94-12.566 56.793 10.684 101.62 43.633 140.31-95.899-45.16-162.32-142.57-162.32-255.58 0.032-155.92 126.38-282.27 282.27-282.23 26.453-0.019 52.078 3.707 76.375 10.469 46.66 44.149 86.992 87.379 74.121 145.44-14.031 63.418-77.312 84.437-144.26 106.65m-6.211 301.97c-14.558 0-28.886-1.114-42.851-3.242-50.332-47.555-96.895-92.872-83.059-155.41 14.008-63.461 77.285-84.41 144.28-106.62 70.801-23.578 151.06-50.16 169.77-134.98 9.484-42.641-1.543-78.469-21.785-110.1 70.239 51.399 115.89 134.39 115.9 228.02 0.02 155.98-126.35 282.37-282.25 282.33" fill="url(#a)"/>
</g>
<path d="m971.75 287.72c-18.711 84.82-98.965 111.4-169.77 134.98-66.992 22.211-130.27 43.16-144.28 106.62-13.836 62.535 32.727 107.85 83.059 155.41-27.215-4.129-53.094-12.149-77.129-23.473-32.949-38.695-56.199-83.52-43.633-140.31 18.762-84.793 98.984-111.42 169.82-134.94 66.946-22.211 130.23-43.23 144.26-106.65 12.871-58.063-27.461-101.29-74.121-145.44 32.793 9.238 63.203 24.149 90 43.711 20.242 31.629 31.269 67.457 21.785 110.1" fill="#fff"/>
<path d="m974.81 285.4-4.227-0.988c-9.324 41.981-33.516 69.231-64.695 89.449-31.145 20.11-69.243 32.789-105.3 44.75-34.094 11.379-67.527 22.403-94.539 39.051-27.067 16.539-47.867 39.141-55.254 72.75-1.777 8.078-2.594 15.809-2.613 23.43 0.175 55.027 43.597 96.406 88.457 139.01l3.004-3.231 0.675-4.277c-27.273-4.219-53.23-12.278-77.343-23.567l-1.86 3.938 3.34-2.883c-26.926-31.648-46.937-66.68-46.949-108.55 0.031-9.73 1.066-19.883 3.43-30.511 9.324-41.872 33.519-69.141 64.714-89.348 31.133-20.141 69.223-32.891 105.33-44.832 34.074-11.289 67.5-22.32 94.543-38.942 27.031-16.589 47.859-39.16 55.21-72.796 1.77-7.903 2.571-15.551 2.54-23-0.125-50.813-37.887-89.954-79.215-129.2l-3.047 3.161-1.172 4.242c32.867 9.219 63.355 24.23 90.203 43.828l2.598-3.57-3.75 2.402c15.215 23.769 25.066 49.527 25.09 78.73 7e-3 9.618-1.118 19.559-3.391 29.969l4.227 0.988 4.32 0.903c2.422-11 3.582-21.61 3.594-31.871 7e-3 -31.192-10.625-58.739-26.438-83.43l-0.437-0.711-0.684-0.508c-27.68-20.191-59.082-35.633-92.98-45.191l-4.192 7.43c41.469 39.121 76.692 76.91 76.524 122.84 0.05 6.801-0.719 13.782-2.325 21.09-6.902 30.981-25.476 51.321-51.257 67.25-25.793 15.891-58.665 26.821-92.774 38.071-35.996 11.98-74.797 24.839-107.3 45.82-32.449 20.879-58.66 50.41-68.472 94.879-2.457 11.191-3.59 21.902-3.61 32.293-0.012 44.879 21.434 81.941 49.02 114.28l0.554 0.711 0.895 0.402c24.828 11.68 51.601 19.988 79.711 24.336l13.902 2.109-10.215-9.609c-45.156-42.637-85.894-82.832-85.714-132.67-0.036-6.93 0.753-14.047 2.414-21.488 6.878-31 25.453-51.34 51.285-67.25 25.73-15.852 58.609-26.84 92.683-38.141 36.055-12 74.871-24.808 107.34-45.758 32.434-20.921 58.672-50.402 68.469-94.89l-4.32-0.903" fill="#3b52ac"/>
<path d="m135.73 727.9 1.555 137.22 54.309-0.586-1.028-88.711 53.274-0.586 0.848 76.7 52.492-0.606-0.813-76.68 100.24-1.101-0.562-48.555-260.32 2.91" fill="#fff"/>
<path d="m191.02 1045.2 21.622 44.31 264.51-51.54-22.183-45.536-46.993 10.156-28.527-58.391 36.797-30.961-21.855-44.8-203.37 176.76m148.16-68.805 18.515 37.995-90.918 21.44-0.246-0.49 72.649-58.945" fill="#fff"/>
<path d="m331.37 1247.3 35.996 32.5 174.62-192.98-35.917-32.59-174.7 193.07" fill="#fff"/>
<path d="m506.09 1373.5 90.129 29.86c31.187 10.43 68.433 0.83 84.976-48.96 8.86-26.62 8.047-54.97-7.168-71.16l0.207-0.68c20.907 0 36.145-27.55 45.43-50.61 3.945-10.27 16.727-46.32 25.906-53.27l-45.535-15.13c-6.726 6.98-15.508 30.95-18.309 37.72-9.503 24.51-20.968 49.14-42.531 41.98l-34.941-11.59 29.922-89.99-46.106-15.28-81.98 247.11m81.687-92.01 38.598 12.82c13.875 4.62 17.809 17.46 11.617 36.12-6.062 18.37-19.219 23.25-32.105 18.95l-36.661-12.17 18.551-55.72" fill="#fff"/>
<path d="m822.51 1433.7 87.156-15.03c34.18-5.87 62.551-33.35 52.07-94.04-10.976-63.62-41.23-83.96-81.593-76.96l-39.325 6.78-14.746-85.51-47.812 8.25 44.25 256.51m27.246-127.53 32.144-5.55c14.883-2.56 27.192 4.24 31.223 27.53 4.16 24.08-5.242 35.67-19.895 38.22l-32.144 5.57-11.328-65.77" fill="#fff"/>
<path d="m1103.2 1350 39.75-27.89-115.95-165.41 71.18-49.87-33.51-47.73-110.88 77.68 149.41 213.22" fill="#fff"/>
<path d="m1348 1101.3 22.59-43.84-199.61-181.05-23.17 45.035 36.27 31.543-29.73 57.716-46.89-10.896-22.76 44.296 263.3 57.2m-143.82-77.52 19.39-37.534 71.62 60.014-0.23 0.49-90.78-22.97" fill="#fff"/>
<path d="m1267.9 773.62-96.88-2.824-1.45 48.496 96.92 2.875 161.29 72.586 1.62-55.031-104.64-40.118 106.82-33.906 1.63-55.019-165.31 62.941" fill="#fff"/>
<path d="m700.87 939.51-47.129-8e-3 0.012-171.24-41.105 0.011-0.028 171.25-47.121-0.019v49.488l135.37 8e-3v-49.492" fill="#fff"/>
<path d="m719.25 825.78 41.125 0.012-0.039-57.539-41.102-0.012 0.016 57.539" fill="#fff"/>
<path d="m898.64 910.19c-2.227 22.234-14.629 33.964-31.887 33.984-26.516-0.016-36.68-32.77-36.699-65.559-8e-3 -32.754 10.207-65.554 36.718-65.527 19.239-8e-3 30.293 15.449 31.868 40.84l41.152-0.039c-2.258-56.856-32.121-90.262-72.121-90.282-47.805 0.047-78.797 50.997-78.758 115.05-0.031 63.985 30.977 115.02 78.738 114.98 34.055 0.039 71.028-30.301 72.117-83.484l-41.128 0.043" fill="#fff"/>
<path d="m961.86 825.81 41.175-0.02-0.04-57.52-41.127-0.011-8e-3 57.551" fill="#fff"/>
</g>
</g>
</svg>
